<svg version="1.1" width="125" height="125" id="svg2" xmlns="http://www.w3.org/2000/svg" viewBox="0 0 125 125"><defs id="defs1"><style id="style1">.main{fill:#000}</style></defs><g id="g2" style="fill:#999"><g id="g3" transform="translate(-11 19.016)"><path id="ob" d="M41.154 91.805q-4.832 -1.361 -8.069 -3.566 -3.237 -2.205 -5.208 -5.067 -1.97 -2.815 -2.815 -6.192 -0.797 -3.331 -0.797 -7.036v-9.524q0 -2.111 -0.469 -3.8 -0.422 -1.689 -1.361 -2.861 -0.892 -1.22 -2.346 -1.877 -1.406 -0.656 -3.424 -0.656V40.579q3.988 0 5.77 -2.487 1.83 -2.533 1.83 -6.755V21.815q0 -3.707 0.797 -7.037 0.844 -3.377 2.815 -6.192 1.971 -2.862 5.208 -5.02Q36.323 1.361 41.154 0l2.956 8.257q-1.83 0.704 -3.002 2.017 -1.172 1.315 -1.877 3.097 -0.704 1.736 -0.985 3.893 -0.281 2.158 -0.281 4.55v9.523q0 4.692 -2.065 8.492t-6.614 6.05q4.55 2.252 6.614 6.099 2.065 3.8 2.065 8.445v9.523q0 2.392 0.281 4.55t0.985 3.894q0.705 1.782 1.877 3.096 1.172 1.314 3.002 2.017z"/><path id="com" d="M79.582 73.041q0 2.861 -0.75 5.723 -0.751 2.862 -2.065 5.488 -1.315 2.675 -3.097 4.973 -1.736 2.346 -3.752 4.082l-7.975 -3.752q0.75 -1.595 1.595 -3.238 0.892 -1.595 1.642 -3.425 0.75 -1.83 1.267 -4.033 0.517 -2.158 0.517 -4.925V63.002h12.666l-0.047 10.039z"/><path id="cb" d="M99.224 83.502q1.83 -0.705 3.002 -2.017 1.172 -1.314 1.877 -3.096 0.704 -1.736 0.985 -3.894t0.281 -4.55v-9.523q0 -4.692 2.065 -8.491 2.065 -3.8 6.661 -6.051 -4.597 -2.252 -6.661 -6.051 -2.065 -3.8 -2.065 -8.491V21.815q0 -2.392 -0.281 -4.55t-0.985 -3.894q-0.705 -1.783 -1.877 -3.097 -1.172 -1.314 -3.002 -2.017L102.179 0q4.832 1.361 8.069 3.565 3.238 2.158 5.208 5.02 1.97 2.815 2.767 6.192 0.844 3.331 0.844 7.037v9.522q0 2.111 0.422 3.847 0.469 1.69 1.361 2.908 0.938 1.173 2.345 1.83 1.455 0.656 3.472 0.656v10.649q-4.034 0 -5.817 2.533 -1.783 2.486 -1.783 6.661v9.523q0 3.706 -0.844 7.036 -0.797 3.377 -2.767 6.192 -1.97 2.863 -5.208 5.067 -3.237 2.205 -8.069 3.566z"/></g></g></svg>